<svg id="SvgjsSvg1001" width="288" height="288" fill="none" xmlns="http://www.w3.org/2000/svg" version="1.1" xmlns:xlink="http://www.w3.org/1999/xlink" xmlns:svgjs="http://svgjs.com/svgjs"><defs id="SvgjsDefs1002"></defs><g id="SvgjsG1008"><svg xmlns="http://www.w3.org/2000/svg" style="margin:auto;background:0 0;z-index:1;position:relative" display="block" preserveAspectRatio="xMidYMid" viewBox="0 0 1667 100" width="288" height="288"><g fill="#3b5441" class="color000 svgShape"><defs><linearGradient id="ldbk-photon-nq4q5u6dq7r-lg" x1="0" x2="1600.26" y1="0" y2="0" gradientUnits="userSpaceOnUse"><stop offset="0" stop-color="#107a8b" class="stopColorf0f svgShape"></stop><stop offset="1" stop-color="#2cb978" class="stopColor0ff svgShape"></stop></linearGradient><mask id="ldbk-photon-nq4q5u6dq7r-mask"><path fill="#83e85a" d="M-300 -0.5 L1548.411815088645 -0.5 A10 10 0 0 1 1548.411815088645 20.5 L-300 20.5" transform="translate(13.469)" class="colorfff svgShape"><animateTransform attributeName="transform" begin="0s" calcMode="spline" dur="7s" keySplines="0.5 0 0.5 1;0.5 0 0.5 1" keyTimes="0;0.5;1" repeatCount="indefinite" type="translate" values="20;0;20"></animateTransform></path><path fill="#83e85a" d="M1505.277190481808 -0.5 L1528.411815088645 -0.5 A10 10 0 0 1 1528.411815088645 20.5 L1505.277190481808 20.5 A10 10 0 0 1 1505.277190481808 -0.5" transform="translate(1823.34)" class="colorfff svgShape"><animateTransform attributeName="transform" begin="0s" dur="7s" keyTimes="0;1" repeatCount="indefinite" type="translate" values="0;2293.5201731434045"></animateTransform><animate attributeName="opacity" begin="0s" dur="7s" keyTimes="0;0.3;1" repeatCount="indefinite" values="1;1;0"></animate></path><path fill="#83e85a" d="M-300 19.5 L1295.9519675252798 19.5 A10 10 0 0 0 1295.9519675252798 40.5 L-300 40.5" transform="translate(8.412)" class="colorfff svgShape"><animateTransform attributeName="transform" begin="-6.000000000000001s" calcMode="spline" dur="5s" keySplines="0.5 0 0.5 1;0.5 0 0.5 1" keyTimes="0;0.5;1" repeatCount="indefinite" type="translate" values="20;0;20"></animateTransform></path><path d="M-50.69212492353904 19.5 L-19.999999999999996 19.5 A10 10 0 0 1 -19.999999999999996 40.5 L-50.69212492353904 40.5 A10 10 0 0 1 -50.69212492353904 19.5" transform="translate(1330.15)" fill="#3b5441" class="color000 svgShape"><animateTransform attributeName="transform" begin="-6.000000000000001s" dur="10s" keyTimes="0;1" repeatCount="indefinite" type="translate" values="0;1537.7425833797638"></animateTransform><animate attributeName="opacity" begin="-6.000000000000001s" dur="10s" keyTimes="0;0.3;1" repeatCount="indefinite" values="1;1;0"></animate></path><path fill="#83e85a" d="M-300 39.5 L1407.6180327318543 39.5 A10 10 0 0 1 1407.6180327318543 60.5 L-300 60.5" transform="translate(1.436)" class="colorfff svgShape"><animateTransform attributeName="transform" begin="-12.000000000000002s" calcMode="spline" dur="7s" keySplines="0.5 0 0.5 1;0.5 0 0.5 1" keyTimes="0;0.5;1" repeatCount="indefinite" type="translate" values="20;0;20"></animateTransform></path><path fill="#83e85a" d="M1360.7766440948606 39.5 L1387.6180327318543 39.5 A10 10 0 0 1 1387.6180327318543 60.5 L1360.7766440948606 60.5 A10 10 0 0 1 1360.7766440948606 39.5" transform="translate(714.564)" class="colorfff svgShape"><animateTransform attributeName="transform" begin="-12.000000000000002s" dur="10s" keyTimes="0;1" repeatCount="indefinite" type="translate" values="0;1536.7009526562479"></animateTransform><animate attributeName="opacity" begin="-12.000000000000002s" dur="10s" keyTimes="0;0.3;1" repeatCount="indefinite" values="1;1;0"></animate></path><path fill="#83e85a" d="M-300 59.5 L1264.4006099636574 59.5 A10 10 0 0 0 1264.4006099636574 80.5 L-300 80.5" transform="translate(17.687)" class="colorfff svgShape"><animateTransform attributeName="transform" begin="-18s" calcMode="spline" dur="5s" keySplines="0.5 0 0.5 1;0.5 0 0.5 1" keyTimes="0;0.5;1" repeatCount="indefinite" type="translate" values="20;0;20"></animateTransform></path><path d="M-46.5869488324803 59.5 L-19.999999999999996 59.5 A10 10 0 0 1 -19.999999999999996 80.5 L-46.5869488324803 80.5 A10 10 0 0 1 -46.5869488324803 59.5" transform="translate(106.311)" fill="#3b5441" class="color000 svgShape"><animateTransform attributeName="transform" begin="-18s" dur="10s" keyTimes="0;1" repeatCount="indefinite" type="translate" values="0;1635.5820117840617"></animateTransform><animate attributeName="opacity" begin="-18s" dur="10s" keyTimes="0;0.3;1" repeatCount="indefinite" values="1;1;0"></animate></path><path fill="#83e85a" d="M-300 79.5 L1340.9335126277247 79.5 A10 10 0 0 1 1340.9335126277247 100.5 L-300 100.5" transform="translate(3.98)" class="colorfff svgShape"><animateTransform attributeName="transform" begin="-24.000000000000004s" calcMode="spline" dur="10s" keySplines="0.5 0 0.5 1;0.5 0 0.5 1" keyTimes="0;0.5;1" repeatCount="indefinite" type="translate" values="20;0;20"></animateTransform></path><path fill="#83e85a" d="M1289.6291732099921 79.5 L1320.9335126277247 79.5 A10 10 0 0 1 1320.9335126277247 100.5 L1289.6291732099921 100.5 A10 10 0 0 1 1289.6291732099921 79.5" transform="translate(1158.88)" class="colorfff svgShape"><animateTransform attributeName="transform" begin="-24.000000000000004s" dur="10s" keyTimes="0;1" repeatCount="indefinite" type="translate" values="0;1742.6803570772145"></animateTransform><animate attributeName="opacity" begin="-24.000000000000004s" dur="10s" keyTimes="0;0.3;1" repeatCount="indefinite" values="1;1;0"></animate></path></mask></defs><rect width="1667" height="100" fill="url(#ldbk-photon-nq4q5u6dq7r-lg)" mask="url(#ldbk-photon-nq4q5u6dq7r-mask)"></rect></g></svg></g></svg>