<?xml version="1.0" encoding="UTF-8"?>
<svg id="Layer_2" data-name="Layer 2" xmlns="http://www.w3.org/2000/svg" viewBox="0 0 445.39 267.23">
  <defs>
    <style>
      .cls-1 {
        fill: #eaa542;
      }

      .cls-2 {
        fill: #155e32;
      }

      .cls-3 {
        fill: #282f44;
      }

      .cls-4 {
        fill: #d82756;
      }

      .cls-5 {
        fill: #0971c6;
      }

      .cls-6 {
        fill: #9e53d3;
      }

      .cls-7 {
        fill: #747275;
      }

      .cls-8 {
        fill: #2dc96c;
      }

      .cls-9 {
        fill: #1296e0;
      }

      .cls-10 {
        fill: #333a56;
      }

      .cls-11 {
        fill: #1f457c;
      }

      .cls-12 {
        fill: #8342bc;
      }

      .cls-13 {
        fill: #ef2652;
      }

      .cls-14 {
        fill: #fbffd9;
      }

      .cls-15 {
        fill: #d3d3d3;
      }

      .cls-16 {
        fill: #4082e2;
      }

      .cls-17 {
        fill: #efefef;
      }

      .cls-18 {
        fill: #208c4b;
      }

      .cls-19 {
        fill: #ffbe57;
      }

      .cls-20 {
        fill: #7f3d3d;
      }
    </style>
  </defs>
  <g id="OBJECTS">
    <g>
      <path class="cls-2" d="m47.62,257.73V123.56h90.14v22.86h-64.06v34.58h53.29v21.16h-53.29v55.56h-26.08ZM179.52,123.56h23.05l51.02,134.17h-26.83l-12.47-33.45h-46.86l-12.28,33.45h-26.83l51.21-134.17Zm30.05,82.39l-18.52-52.72-19.27,52.72h37.79Zm145.13,43.09c-65.89,40.55-133.88-48.51-80.59-105.82,24.94-26.81,68.22-28.5,94.2.94,23.81,26.98,23.87,66.82.38,92.97l18.33,20.6c-29.48,0-22.56,2.25-32.31-8.69Zm-33.82-13.42c6.58,0,12.52-1.65,17.76-4.54l-20.41-23.05h24.57l9.26,10.39c24.02-38.46-10.17-88.75-48-68.88-35.77,18.81-27.24,86.07,16.82,86.07Z"/>
      <path class="cls-8" d="m53.63,257.73V123.56h90.14v22.86h-64.06v34.58h53.29v21.16h-53.29v55.56h-26.08ZM185.52,123.56h23.05l51.02,134.17h-26.83l-12.47-33.45h-46.86l-12.28,33.45h-26.83l51.21-134.17Zm30.05,82.39l-18.52-52.72-19.27,52.72h37.79Zm145.13,43.09c-65.89,40.55-133.88-48.51-80.59-105.82,24.94-26.81,68.22-28.5,94.2.94,23.81,26.98,23.87,66.82.38,92.97l18.33,20.6c-29.48,0-22.56,2.25-32.31-8.69Zm-33.82-13.42c6.58,0,12.52-1.65,17.76-4.54l-20.41-23.05h24.57l9.26,10.39c24.02-38.46-10.17-88.75-48-68.88-35.77,18.81-27.24,86.07,16.82,86.07Z"/>
      <g>
        <path class="cls-18" d="m286.66,137.1h38.14l8.93-4.44,4.35-7.18-4.07-2.5c-16.69-1.84-33.84,3.1-47.34,14.11Z"/>
        <path class="cls-18" d="m265.24,213.71c6.35,17.31,19.29,31.96,35.56,39.68l2.03-26.52c-11.94-10.41-16.97-28.46-14.38-45.01l-23.21,31.84Z"/>
        <polygon class="cls-18" points="213.9 211.99 188.75 224.28 214.29 224.28 219.13 218.71 213.9 211.99"/>
        <polygon class="cls-18" points="79.7 181.01 53.63 195.73 53.63 257.73 60.63 257.73 79.7 227.47 79.7 202.17 99.81 202.66 114.52 181.82 108.59 178.71 79.7 181.01"/>
      </g>
      <g>
        <path class="cls-5" d="m219.63,247.46s-13.02-10.9-17.11-9.01c-4.09,1.89-17.15,17.67-17.15,17.67l4.41,1.83,17.12-7.59,16.52,6.64.57-6.81-4.36-2.73Z"/>
        <path class="cls-10" d="m197.92,225.31l.18-3.77s0-.08,0-.11l-.37-2.21c-.05-.28.14-.55.42-.61l2.85-.56c.3-.06.59.14.63.45l.92,6.41c.03.21-.07.41-.24.52l-3.22,2.03-1.09-1.86c-.05-.09-.08-.19-.07-.29Z"/>
        <polygon class="cls-14" points="198.28 219.2 199.41 225.77 202.1 224.49 201.21 218.49 198.28 219.2"/>
        <path class="cls-10" d="m217.03,226.22s-2.05,3.38-2.43,6.12c-.38,2.74,3.16,15.19,3.07,20.79,0,0,7.7,1.51,14.19-2.29,0,0-.63-17.16-3.3-22.15-2.67-4.99-6.09-5.77-6.09-5.77,0,0-4.18,1.21-5.44,3.29Z"/>
        <path class="cls-11" d="m225.91,216.39c.17-3.25-2.64-3.6-2.64-3.6.53-2.97-6.21-5.26-9.92-2.04-1.29,1.12-1.49,2.19-1.33,3.03-.54.43-1.07,1.08-1.13,2.04-.11,2.05,2.99,2.86,2.99,2.86l.69-1.99.21.15,4.21,5.23,3.47.87s3.28-3.3,3.45-6.54Z"/>
        <path class="cls-19" d="m212.96,215.48s-.7,1.52-.46,2.77c.24,1.25-.62,2.79-.24,3.01l.39.22s0,2.16.83,2.85c.83.69,3.46.48,3.46.48l.1,1.43s3.16-3.18,5.44-3.29c0,0-1.67-1.15-1.95-1.86l-.28-.72s.83-1.86.09-2.6c-.74-.73-1.2.96-1.2.96l-.55.03s.33-3.28-.45-3.87c-.79-.59-5.16.61-5.16.61Z"/>
        <path class="cls-19" d="m212.6,232.54l5.64,6.64s-7.9,5.69-9.49,5.39c-1.59-.3-10.17-12.81-10.38-13.7-.21-.9-2.01-4.75-1.81-5.94.2-1.19,1.46-3.82,1.54-3.44.08.39.67,4.82,1.2,4.95s1.59-3.31,1.97-2.91c.38.4.66,1.6.3,2.58s-.71,2.93-.71,2.93c0,0,1.48,1.62,3.82,3.51,2.33,1.89,3.9,3.08,4.88,4.86,0,0,1.39-2.66,3.03-4.87Z"/>
        <path class="cls-13" d="m212.6,232.54s4.16-6.56,7.54-5.96c3.38.6,4.01,4.06,2.97,6.69-.96,2.4-1.92,3.86-4.87,5.91l-5.64-6.64Z"/>
        <path class="cls-9" d="m231.86,250.85s-6.22.19-9.02.05c-2.8-.14-4.86-.47-4.86-.47,0,0-16.06-6.68-18.84-4.73-2.77,1.95-16.19,10.14-16.19,10.14l3.8,4.59s13.68-3.12,16.73-6.66c0,0,11.28,8.67,20.56,7.91,9.28-.76,7.81-10.84,7.81-10.84Z"/>
        <polygon class="cls-14" points="182.95 255.84 180 257.78 182.9 261.41 186.75 260.43 182.95 255.84"/>
        <path class="cls-10" d="m180,257.78s-9.42-5.92-10.13-5.28c-.71.65,7.88,11.76,8.42,11.83.54.06,4.61-2.92,4.61-2.92l-2.9-3.62Z"/>
      </g>
      <g>
        <path class="cls-6" d="m96.2,150.87s-5.84,2.01-7.37,4.02c-1.53,2.01-5.35,16.72-4.68,18.01.67,1.29,7.45,3.77,7.45,3.77l15.76-2.01s6.02-3.96,5.73-5.85c-.29-1.89-4.3-14.5-6.11-15.36s-7.9-2.72-7.9-2.72l-2.87.14Z"/>
        <path class="cls-13" d="m90.19,175.07c-.19.1-12.65,4.03-12.94,7.81-.29,3.79,17.4,15.43,17.4,15.43l3.02-2.59s-8.63-11.17-10.45-11.84c0,0,12.84-1.39,16.25-2.44,3.4-1.05,5.13-2.73,5.13-2.73l-4.07-3.14-14.33-.5Z"/>
        <path class="cls-13" d="m107.25,173.63s7.84-3.47,11.44-.75c3.6,2.72-.17,6.3-4.17,8.93-4.15,2.73-14.11,6.57-14.11,6.57l-1.73-3.49s3.96-3.69,7.62-5.47l.95-5.8Z"/>
        <path class="cls-1" d="m95.45,150.73s-.25,4.95,2.42,9.48c0,0,3.08-4.82,2.77-9.33l-5.19-.15Z"/>
        <path class="cls-20" d="m101.17,138.9s-2.1-3.03-6.17-1.24c-3.21,1.41-5,4.65-3.84,7.99,1.16,3.34,3.84,3.76,3.84,3.76l8.38-1.94s2.79-1.97,1.75-5.7c-.94-3.33-3.96-2.87-3.96-2.87Z"/>
        <path class="cls-19" d="m93.55,148.13s.22,4.28,4.29,4.85c0,0,4.02-.06,4.68-4.85,0,0,.5-4.16-1.76-6.17,0,0-.28,1.39-2.7,1.39s-3.9.82-4.51,4.79Z"/>
        <g>
          <path class="cls-19" d="m101.87,147.47s1.13-1.44,1.78-.96c.65.48-.67,2.83-1.43,2.63-.76-.2-.35-1.67-.35-1.67Z"/>
          <path class="cls-19" d="m94.23,147.47s-1.13-1.44-1.78-.96c-.65.48.67,2.83,1.43,2.63.76-.2.35-1.67.35-1.67Z"/>
        </g>
        <g>
          <polygon class="cls-17" points="109.34 169.03 86.77 169.03 87.26 168.58 108.84 168.58 109.34 169.03"/>
          <polygon class="cls-15" points="86.77 169.03 89.75 179.43 106.3 179.43 109.34 169.03 86.77 169.03"/>
          <path class="cls-17" d="m99.6,173.1c-.28-.28-.74-.28-1.03,0l-.42.42-.42-.42c-.28-.28-.74-.28-1.03,0-.28.28-.28.74,0,1.03l.42.42,1.03,1.03,1.03-1.03.42-.42c.28-.28.28-.74,0-1.03Z"/>
        </g>
        <path class="cls-10" d="m100.41,188.39s.04-.11-1.95.91c-2,1.02-3.93,3.86-5.47,3.44-1.54-.42-1.12-3.15.11-4.35,1.23-1.2,3.09-2.74,3.75-2.95.67-.21,1.84-.54,1.84-.54l1.73,3.49Z"/>
        <path class="cls-10" d="m94.65,198.31s1.03.89,1.85,3.53c.81,2.64.09,5.08,1.21,5.47s1.71-2.93,2.11-4.66c.4-1.73,1.39-4.17.79-4.83-.59-.66-2.94-2.1-2.94-2.1l-3.02,2.59Z"/>
      </g>
      <g>
        <polygon class="cls-3" points="323.41 129.14 334.2 129.14 338.08 125.48 336.71 118.94 323.73 120.43 318.93 124.16 323.41 129.14"/>
        <path class="cls-13" d="m331.32,87.45s-2.19-1.94-4.85-1.43c-2.42.46-5.11,2.8-5.61,6.26-.5,3.45,1.15,8.37-.5,9.55,0,0,11.16,3.77,16.77-1.27,0,0-1.44-1.24-1.08-4.88.34-3.39-1.17-9.66-4.72-8.22Z"/>
        <path class="cls-16" d="m327.82,101.82s-7.06,1.9-8.05,3.62c-1,1.73-5.09,13.17-5.09,13.17l3.6,5.54,2.11-.69,17.28-.35,1.91-1.15,4.09-.79s-5.75-16.06-7.34-17.04c-1.59-.98-8.51-2.32-8.51-2.32Z"/>
        <path class="cls-1" d="m325.54,99.3s-.04,1.1,2.93,6.14c0,0,2.06-4.32,2.85-5.97l-5.79-.17Z"/>
        <path class="cls-19" d="m323.41,96.41s.25,4.78,4.79,5.41c0,0,4.48-.07,5.22-5.41,0,0,.55-4.64-1.96-6.88,0,0-.32,1.55-3.01,1.55s-4.35.91-5.03,5.34Z"/>
        <g>
          <path class="cls-19" d="m332.7,95.67s1.26-1.6,1.98-1.07c.73.53-.75,3.15-1.6,2.93-.85-.22-.39-1.86-.39-1.86Z"/>
          <path class="cls-19" d="m324.18,95.67s-1.26-1.6-1.98-1.07.75,3.15,1.6,2.93c.85-.22.39-1.86.39-1.86Z"/>
        </g>
        <g>
          <polygon class="cls-17" points="341.32 113.14 316.16 113.14 316.71 112.64 340.77 112.64 341.32 113.14"/>
          <polygon class="cls-15" points="316.16 113.14 319.48 124.74 337.93 124.74 341.32 113.14 316.16 113.14"/>
          <path class="cls-17" d="m330.46,117.68c-.32-.32-.83-.32-1.14,0l-.47.47-.47-.47c-.32-.32-.83-.32-1.14,0s-.32.83,0,1.14l.47.47,1.14,1.14,1.14-1.14.47-.47c.32-.32.32-.83,0-1.14Z"/>
        </g>
        <g>
          <g>
            <path class="cls-10" d="m326.57,135.12s-14.5-7.12-15.41-12.28c-.87-4.95,3.25-5.29,6.81-2.95s11.34,12.77,11.34,12.77l-2.75,2.46Z"/>
            <path class="cls-4" d="m329.31,132.66s1.43,1.52,3.64,2.46c2.21.94,3.46,2.87,2.3,4.11s-2.88,1.45-4.65-.38c-1.77-1.82-4.04-3.73-4.04-3.73l2.75-2.46Z"/>
          </g>
          <g>
            <path class="cls-10" d="m330.91,135.12s14.5-7.12,15.41-12.28c.87-4.95-3.25-5.29-6.81-2.95s-11.34,12.77-11.34,12.77l2.75,2.46Z"/>
            <path class="cls-13" d="m328.16,132.66s-1.43,1.52-3.64,2.46c-2.21.94-3.46,2.87-2.3,4.11,1.16,1.23,2.88,1.45,4.65-.38,1.77-1.82,4.04-3.73,4.04-3.73l-2.75-2.46Z"/>
          </g>
        </g>
      </g>
      <g>
        <path class="cls-12" d="m296.92,219.28l6.71-6.08s4.14,20.29,3.35,25.5c-.79,5.21-7.58,21.63-7.58,21.63l-1.42-2.37-1.06-38.68Z"/>
        <path class="cls-6" d="m303.63,213.2s.45,17.59-.26,27.08c-.71,9.49-2.35,21.08-2.35,21.08h-4.53s1.03-10.36-.28-20.83c-1.31-10.47-2.83-16.63-4.67-20.23-1.83-3.61-1.43-7.1-1.43-7.1h13.52Z"/>
        <path class="cls-13" d="m303.09,178.09l.22-2.48s.54-2.22-1.53-4.12c-2.08-1.9-5.28-1.7-6.77.6,0,0,1.9.6,1.1,1.5s-2.9,1.7-3.2,3c-.3,1.3,0,2.1,0,2.1,0,0-.57.41-.13,2.15.43,1.74,4.49,5.24,4.49,5.24l3.43-3.29,2.4-4.7Z"/>
        <path class="cls-10" d="m325.93,176.02l-.65-3.71s0-.08,0-.11l.09-2.24c.01-.29-.21-.53-.49-.55l-2.9-.2c-.3-.02-.56.22-.57.52l-.1,6.48c0,.21.12.4.31.49l3.45,1.61.84-1.98c.04-.09.05-.2.03-.3Z"/>
        <polygon class="cls-14" points="324.8 170 324.51 176.67 321.68 175.73 321.81 169.67 324.8 170"/>
        <path class="cls-10" d="m304.94,188.57s.98,2.33,1.36,5.07c.38,2.74-2.53,12.68-2.67,19.56,0,0-7.03,3.8-13.52,0,0,0,.63-17.16,3.3-22.15,2.67-4.99,4.92-6.05,4.92-6.05,0,0,5.35,1.5,6.61,3.57Z"/>
        <path class="cls-19" d="m303.31,175.61s1.22,1.15,1.46,2.4,1.62,2.36,1.34,2.7l-.28.34s.81,2,.3,2.95c-.52.95-3.03,1.73-3.03,1.73l.44,1.36s-4.12-1.78-6.27-1.02c0,0,1.12-1.69,1.12-2.46v-.77s-1.47-1.42-1.06-2.38,1.47.44,1.47.44l.52-.18s-1.53-2.92-1.02-3.76,5.02-1.36,5.02-1.36Z"/>
        <path class="cls-19" d="m315.17,190.63c.2-1.5,1.38-2.85,1.38-2.85.8-1.16,2.15-2.24,3.57-3.72,2.08-2.17,3.35-3.96,3.35-3.96,0,0-.6-1.88-1.07-2.82-.47-.93-.35-2.15-.02-2.6.33-.45,1.81,2.83,2.32,2.64.51-.2.54-4.67.57-5.06.03-.39,1.61,2.06,1.96,3.22.35,1.16-.95,5.2-1.04,6.12-.08.79-5.09,11.15-7.49,14.23-1.55,1.19-10.56,1.94-10.56,1.94l-.02-8.71c1.36-.09,7.06,1.59,7.06,1.59Z"/>
        <path class="cls-16" d="m308.11,189.04s-7.42-2.29-9.61.36c-2.18,2.65-.42,5.69,2.09,7.01,2.29,1.2,3.97,1.69,7.54,1.34l-.02-8.71Z"/>
        <path class="cls-10" d="m301.02,261.36s10.53,4.56,9.22,5.29c-1.3.72-11.27.82-13.31,0-1.08-.43-.44-5.3-.44-5.3h4.53Z"/>
      </g>
      <g>
        <g>
          <rect class="cls-7" y="228.11" width="38.05" height=".5"/>
          <rect class="cls-7" x="393.01" y="228.11" width="52.37" height=".5"/>
          <rect class="cls-7" x="86.91" y="228.11" width="43.12" height=".5"/>
        </g>
        <g>
          <path class="cls-7" d="m344.83,33.26c0-.31.05-.6.15-.85s.31-.47.64-.66c.1-.06.21-.12.36-.2.14-.07.28-.16.41-.27.13-.1.25-.22.34-.36s.14-.3.14-.48c0-.13-.03-.25-.08-.36-.05-.1-.12-.19-.2-.26-.08-.07-.18-.12-.29-.16s-.23-.05-.34-.05c-.14,0-.27.02-.39.07-.12.05-.22.11-.31.18-.09.07-.18.16-.25.25-.07.09-.14.18-.19.26l-.84-.58c.08-.2.19-.38.33-.53.14-.15.29-.28.47-.39.18-.11.37-.19.57-.24s.42-.08.64-.08c.24,0,.48.04.72.11.24.07.45.18.64.34.19.15.34.35.46.59.12.24.18.53.18.86,0,.21-.02.39-.07.54-.05.16-.12.3-.21.43-.09.13-.2.24-.32.35-.12.1-.26.2-.41.3-.13.08-.26.15-.39.22-.13.07-.25.15-.35.24-.11.09-.19.19-.26.3-.07.11-.1.25-.1.41h-1.06Zm.02,2.24v-1.33h1.07v1.33h-1.07Z"/>
          <path class="cls-7" d="m368.73,28.66c-.89-.28-1.78-.37-2.83-.18l-.28.05-.02-.28c-.29-5.18-4.57-9.23-9.75-9.23-2.24,0-4.35.74-6.11,2.15l-.24.19-.14-.27c-1.91-3.64-5.65-5.9-9.75-5.9-2.9,0-5.64,1.12-7.71,3.16l-.35-.36c2.16-2.13,5.02-3.3,8.06-3.3,4.19,0,8.01,2.26,10.05,5.91,1.8-1.36,3.93-2.07,6.18-2.07,5.35,0,9.8,4.12,10.23,9.43,1-.14,1.91-.04,2.79.24l-.15.48Z"/>
          <path class="cls-7" d="m365.23,41.82l-.44-.23c.24-.46.45-.94.63-1.43l.07-.2.21.04c.41.09.83.13,1.23.13,3.24,0,5.87-2.63,5.87-5.87,0-1.23-.38-2.41-1.09-3.41l-.28-.4h.49c2.35,0,8.96,0,8.96,0v.5s-5.84,0-8.49,0c.6.99.92,2.13.92,3.3,0,3.51-2.86,6.37-6.37,6.37-.37,0-.75-.03-1.12-.1-.17.44-.37.87-.58,1.29Z"/>
          <path class="cls-7" d="m336.45,49.39c-3.86,0-7.26-2.42-8.52-6.06-.55.12-1.09.18-1.62.18-4.21,0-7.64-3.43-7.64-7.65,0-3.48,2.31-6.48,5.65-7.37-.07-.28-.1-.53-.1-.78,0-2.15,1.9-3.88,4.08-3.6.17-.91.44-1.8.82-2.64l.07-.15h8.66v.5h-8.34c-.36.83-.62,1.71-.76,2.62l-.04.26-.25-.05c-1.99-.39-3.74,1.14-3.74,3.07,0,.27.05.55.14.89l.08.25-.26.06c-3.25.76-5.51,3.62-5.51,6.95,0,3.94,3.21,7.15,7.14,7.15.56,0,1.14-.07,1.72-.22l.23-.06.07.22c1.13,3.55,4.39,5.93,8.11,5.93,3.24,0,6.16-1.81,7.61-4.72l.17-.33.25.28c2.36,2.66,5.75,4.18,9.28,4.18,3.29,0,6.38-1.27,8.72-3.59l.07-.07h8.54s0,.5,0,.5h-8.34c-2.42,2.36-5.62,3.66-9,3.66-3.56,0-6.97-1.48-9.41-4.09-1.59,2.89-4.58,4.68-7.89,4.68Z"/>
        </g>
        <g>
          <path class="cls-7" d="m204.35,81.66c0-.28.05-.54.14-.77.09-.23.28-.42.57-.59.09-.05.19-.11.32-.18.13-.07.25-.15.37-.24.12-.09.22-.2.31-.33s.13-.27.13-.43c0-.12-.02-.23-.07-.32-.05-.09-.11-.17-.18-.24-.08-.06-.16-.11-.27-.14-.1-.03-.2-.05-.31-.05-.13,0-.24.02-.35.07-.1.04-.2.1-.28.17-.08.07-.16.14-.23.23-.07.08-.12.16-.17.24l-.76-.52c.08-.18.17-.34.3-.48.12-.14.27-.26.43-.35.16-.1.33-.17.52-.22.19-.05.38-.07.57-.07.22,0,.44.03.65.1.21.06.41.17.58.3.17.14.31.32.42.54.11.22.16.48.16.78,0,.19-.02.35-.07.49-.04.14-.11.27-.19.39-.08.12-.18.22-.29.31-.11.09-.24.18-.37.27-.12.07-.23.14-.35.2-.12.06-.22.13-.32.21-.1.08-.17.17-.24.27-.06.1-.09.23-.09.37h-.96Zm.02,2.03v-1.2h.97v1.2h-.97Z"/>
          <path class="cls-7" d="m220.77,92.23l-.36-.35c1.12-1.15,1.97-2.49,2.52-3.99l.08-.2.21.05c.37.08.74.12,1.11.12,2.91,0,5.28-2.37,5.28-5.28s-2.37-5.28-5.28-5.28c-.3,0-.6.03-.93.09l-.28.05-.02-.28c-.08-1.37-.46-2.67-1.13-3.85l-.21-.37h.43c2.4,0,7.67,0,7.67,0v.5s-4.71,0-7.25,0c.55,1.07.87,2.22.97,3.42.26-.04.5-.05.75-.05,3.19,0,5.78,2.59,5.78,5.78s-2.59,5.78-5.78,5.78c-.33,0-.67-.03-1-.09-.58,1.49-1.44,2.82-2.56,3.97Z"/>
          <path class="cls-7" d="m182.13,80.69l-.43-.26c.92-1.51,2.4-2.62,4.09-3.09-.06-.24-.08-.47-.08-.69,0-1.95,1.69-3.52,3.7-3.28.91-4.95,5.18-8.52,10.24-8.52,3.78,0,7.24,2.03,9.09,5.33,1.62-1.22,3.54-1.86,5.58-1.86,2.17,0,4.29.77,5.95,2.16l-.32.38c-1.58-1.32-3.58-2.04-5.63-2.04s-3.92.67-5.5,1.93l-.24.19-.14-.27c-1.72-3.28-5.09-5.32-8.79-5.32-4.9,0-9.02,3.51-9.79,8.35l-.04.26-.25-.05c-1.79-.36-3.35,1.02-3.35,2.75,0,.25.04.5.13.79l.08.25-.26.06c-1.67.39-3.14,1.46-4.03,2.92Z"/>
          <path class="cls-7" d="m196.78,96.27c-3.5,0-6.57-2.19-7.71-5.47-.49.11-.97.16-1.44.16-3.82,0-6.93-3.11-6.93-6.93,0-.32.02-.65.07-.97l.03-.22h8.99v.5h-8.56c-.02.23-.04.46-.04.68,0,3.55,2.89,6.43,6.43,6.43.5,0,1.03-.07,1.55-.2l.23-.06.07.22c1.02,3.19,3.95,5.34,7.31,5.34,2.92,0,5.55-1.63,6.86-4.25l.16-.33.25.28c2.13,2.4,5.18,3.77,8.37,3.77,1.79,0,3.51-.41,5.09-1.22l.11-.03c2.62,0,6.53,0,6.53,0v.5s-3.85,0-6.47,0c-1.64.83-3.41,1.25-5.26,1.25-3.21,0-6.29-1.33-8.5-3.68-1.44,2.61-4.15,4.21-7.14,4.21Z"/>
        </g>
        <g>
          <path class="cls-7" d="m79.89,25.04c0-.39.06-.74.19-1.06.13-.31.39-.58.79-.82.12-.07.27-.15.44-.25.18-.09.35-.2.52-.33.17-.13.31-.28.43-.45.12-.17.17-.37.17-.59,0-.17-.03-.32-.1-.44-.06-.13-.15-.24-.25-.32-.1-.09-.23-.15-.37-.2-.14-.04-.28-.07-.43-.07-.18,0-.34.03-.48.09-.14.06-.27.14-.39.23-.12.09-.22.2-.31.31-.09.12-.17.23-.23.33l-1.04-.72c.1-.25.24-.47.41-.66.17-.19.37-.35.59-.49.22-.13.46-.23.71-.3.26-.07.52-.1.79-.1.3,0,.6.04.9.13.3.09.56.23.8.42.24.19.43.44.58.74.15.3.22.66.22,1.07,0,.26-.03.48-.09.68-.06.2-.15.37-.26.53-.11.16-.24.3-.4.43-.15.13-.32.25-.52.37-.16.1-.32.19-.48.28-.16.09-.31.19-.44.29-.13.11-.24.23-.32.37-.08.14-.13.31-.13.51h-1.32Zm.02,2.8v-1.66h1.33v1.66h-1.33Z"/>
          <path class="cls-7" d="m47.87,28.29h-.5c0-.16,0-.32.01-.47.2-4.1,3.08-7.63,7.04-8.67-.09-.36-.13-.69-.13-1.01,0-2.66,2.37-4.79,5.08-4.41,1.21-6.83,7.08-11.76,14.04-11.76,5.22,0,9.98,2.82,12.5,7.39,2.24-1.71,4.9-2.61,7.72-2.61s5.32.85,7.51,2.46l-.3.4c-2.1-1.54-4.6-2.36-7.22-2.36-2.8,0-5.45.93-7.64,2.69l-.24.19-.14-.27c-2.39-4.56-7.07-7.39-12.2-7.39-6.8,0-12.51,4.87-13.59,11.59l-.04.26-.25-.05c-2.49-.49-4.73,1.44-4.73,3.88,0,.35.06.7.18,1.12l.08.25-.26.06c-3.87.91-6.71,4.31-6.9,8.27,0,.15-.01.3-.01.45Z"/>
          <path class="cls-7" d="m114.97,28.55l-.48-.14c.21-.68.31-1.4.31-2.12,0-4.07-3.31-7.37-7.37-7.37-.42,0-.84.04-1.3.12l-.28.05-.02-.28c-.12-2.24-.86-4.39-2.12-6.23l-.27-.39h12.58v.5h-11.64c1.11,1.74,1.77,3.74,1.93,5.81.39-.06.75-.09,1.12-.09,4.34,0,7.87,3.53,7.87,7.87,0,.77-.11,1.53-.33,2.26Z"/>
          <path class="cls-7" d="m69.45,45.08c-4.81,0-9.02-3.03-10.57-7.56-.69.16-1.38.23-2.05.23-3.68,0-7.05-2.16-8.59-5.5l-.16-.35h11.64v.5h-10.85c1.53,2.96,4.61,4.86,7.97,4.86.7,0,1.43-.09,2.16-.27l.23-.06.07.22c1.41,4.44,5.5,7.43,10.16,7.43,4.06,0,7.72-2.27,9.54-5.91l.17-.33.25.28c2.96,3.32,7.19,5.23,11.61,5.23,6.48,0,12.34-4.09,14.58-10.19l.08-.2.21.05c2.24.48,4.55-.11,6.25-1.54l.07-.06h8.95v.5h-8.77c-1.75,1.44-4.09,2.05-6.39,1.63-2.37,6.18-8.36,10.32-14.97,10.32-4.44,0-8.7-1.87-11.74-5.13-1.96,3.63-5.69,5.87-9.82,5.87Z"/>
        </g>
        <g>
          <path class="cls-7" d="m108.59,98.3c-.14,0-.25-.11-.25-.25v-1.44c0-.14.11-.25.25-.25s.25.11.25.25v1.44c0,.14-.11.25-.25.25Z"/>
          <path class="cls-7" d="m108.59,102.25c-.14,0-.25-.11-.25-.25v-1.44c0-.14.11-.25.25-.25s.25.11.25.25v1.44c0,.14-.11.25-.25.25Z"/>
          <path class="cls-7" d="m109.59,99.3c0-.14.11-.25.25-.25h1.44c.14,0,.25.11.25.25s-.11.25-.25.25h-1.44c-.14,0-.25-.11-.25-.25Z"/>
          <path class="cls-7" d="m105.65,99.3c0-.14.11-.25.25-.25h1.44c.14,0,.25.11.25.25s-.11.25-.25.25h-1.44c-.14,0-.25-.11-.25-.25Z"/>
          <path class="cls-7" d="m109.3,98.59c-.1-.1-.1-.26,0-.35l1.02-1.02c.1-.1.26-.1.35,0s.1.26,0,.35l-1.02,1.02c-.1.1-.26.1-.35,0Z"/>
          <path class="cls-7" d="m106.51,101.38c-.1-.1-.1-.26,0-.35l1.02-1.02c.1-.1.26-.1.35,0,.1.1.1.26,0,.35l-1.02,1.02c-.1.1-.26.1-.35,0Z"/>
          <path class="cls-7" d="m109.3,100.01c.1-.1.26-.1.35,0l1.02,1.02c.1.1.1.26,0,.35-.1.1-.26.1-.35,0l-1.02-1.02c-.1-.1-.1-.26,0-.35Z"/>
          <path class="cls-7" d="m106.51,97.22c.1-.1.26-.1.35,0l1.02,1.02c.1.1.1.26,0,.35-.1.1-.26.1-.35,0l-1.02-1.02c-.1-.1-.1-.26,0-.35Z"/>
        </g>
        <g>
          <path class="cls-7" d="m256.54,32.02c-.14,0-.25-.11-.25-.25v-1.44c0-.14.11-.25.25-.25s.25.11.25.25v1.44c0,.14-.11.25-.25.25Z"/>
          <path class="cls-7" d="m256.54,35.97c-.14,0-.25-.11-.25-.25v-1.44c0-.14.11-.25.25-.25s.25.11.25.25v1.44c0,.14-.11.25-.25.25Z"/>
          <path class="cls-7" d="m257.54,33.02c0-.14.11-.25.25-.25h1.44c.14,0,.25.11.25.25s-.11.25-.25.25h-1.44c-.14,0-.25-.11-.25-.25Z"/>
          <path class="cls-7" d="m253.59,33.02c0-.14.11-.25.25-.25h1.44c.14,0,.25.11.25.25s-.11.25-.25.25h-1.44c-.14,0-.25-.11-.25-.25Z"/>
          <path class="cls-7" d="m257.25,32.31c-.1-.1-.1-.26,0-.35l1.02-1.02c.1-.1.26-.1.35,0s.1.26,0,.35l-1.02,1.02c-.1.1-.26.1-.35,0Z"/>
          <path class="cls-7" d="m254.46,35.1c-.1-.1-.1-.26,0-.35l1.02-1.02c.1-.1.26-.1.35,0,.1.1.1.26,0,.35l-1.02,1.02c-.1.1-.26.1-.35,0Z"/>
          <path class="cls-7" d="m257.25,33.73c.1-.1.26-.1.35,0l1.02,1.02c.1.1.1.26,0,.35s-.26.1-.35,0l-1.02-1.02c-.1-.1-.1-.26,0-.35Z"/>
          <path class="cls-7" d="m254.46,30.94c.1-.1.26-.1.35,0l1.02,1.02c.1.1.1.26,0,.35-.1.1-.26.1-.35,0l-1.02-1.02c-.1-.1-.1-.26,0-.35Z"/>
        </g>
        <g>
          <path class="cls-7" d="m245.52,154.46c-.14,0-.25-.11-.25-.25v-1.44c0-.14.11-.25.25-.25s.25.11.25.25v1.44c0,.14-.11.25-.25.25Z"/>
          <path class="cls-7" d="m245.52,158.4c-.14,0-.25-.11-.25-.25v-1.44c0-.14.11-.25.25-.25s.25.11.25.25v1.44c0,.14-.11.25-.25.25Z"/>
          <path class="cls-7" d="m246.52,155.46c0-.14.11-.25.25-.25h1.44c.14,0,.25.11.25.25s-.11.25-.25.25h-1.44c-.14,0-.25-.11-.25-.25Z"/>
          <path class="cls-7" d="m242.57,155.46c0-.14.11-.25.25-.25h1.44c.14,0,.25.11.25.25s-.11.25-.25.25h-1.44c-.14,0-.25-.11-.25-.25Z"/>
          <path class="cls-7" d="m246.23,154.75c-.1-.1-.1-.26,0-.35l1.02-1.02c.1-.1.26-.1.35,0,.1.1.1.26,0,.35l-1.02,1.02c-.1.1-.26.1-.35,0Z"/>
          <path class="cls-7" d="m243.44,157.54c-.1-.1-.1-.26,0-.35l1.02-1.02c.1-.1.26-.1.35,0,.1.1.1.26,0,.35l-1.02,1.02c-.1.1-.26.1-.35,0Z"/>
          <path class="cls-7" d="m246.23,156.17c.1-.1.26-.1.35,0l1.02,1.02c.1.1.1.26,0,.35-.1.1-.26.1-.35,0l-1.02-1.02c-.1-.1-.1-.26,0-.35Z"/>
          <path class="cls-7" d="m243.44,153.38c.1-.1.26-.1.35,0l1.02,1.02c.1.1.1.26,0,.35-.1.1-.26.1-.35,0l-1.02-1.02c-.1-.1-.1-.26,0-.35Z"/>
        </g>
        <g>
          <path class="cls-7" d="m387.01,112.13c-.14,0-.25-.11-.25-.25v-1.44c0-.14.11-.25.25-.25s.25.11.25.25v1.44c0,.14-.11.25-.25.25Z"/>
          <path class="cls-7" d="m387.01,116.08c-.14,0-.25-.11-.25-.25v-1.44c0-.14.11-.25.25-.25s.25.11.25.25v1.44c0,.14-.11.25-.25.25Z"/>
          <path class="cls-7" d="m388.01,113.14c0-.14.11-.25.25-.25h1.44c.14,0,.25.11.25.25s-.11.25-.25.25h-1.44c-.14,0-.25-.11-.25-.25Z"/>
          <path class="cls-7" d="m384.06,113.14c0-.14.11-.25.25-.25h1.44c.14,0,.25.11.25.25s-.11.25-.25.25h-1.44c-.14,0-.25-.11-.25-.25Z"/>
          <path class="cls-7" d="m387.72,112.43c-.1-.1-.1-.26,0-.35l1.02-1.02c.1-.1.26-.1.35,0s.1.26,0,.35l-1.02,1.02c-.1.1-.26.1-.35,0Z"/>
          <path class="cls-7" d="m384.93,115.22c-.1-.1-.1-.26,0-.35l1.02-1.02c.1-.1.26-.1.35,0s.1.26,0,.35l-1.02,1.02c-.1.1-.26.1-.35,0Z"/>
          <path class="cls-7" d="m387.72,113.85c.1-.1.26-.1.35,0l1.02,1.02c.1.1.1.26,0,.35-.1.1-.26.1-.35,0l-1.02-1.02c-.1-.1-.1-.26,0-.35Z"/>
          <path class="cls-7" d="m384.93,111.06c.1-.1.26-.1.35,0l1.02,1.02c.1.1.1.26,0,.35s-.26.1-.35,0l-1.02-1.02c-.1-.1-.1-.26,0-.35Z"/>
        </g>
        <path class="cls-7" d="m57.25,86.52c0,.33-.26.59-.59.59s-.59-.26-.59-.59.26-.59.59-.59.59.26.59.59Z"/>
        <path class="cls-7" d="m128.9,56.47c0,.33-.26.59-.59.59s-.59-.26-.59-.59.26-.59.59-.59.59.26.59.59Z"/>
        <path class="cls-7" d="m19.61,171.84c0,.33-.26.59-.59.59s-.59-.26-.59-.59.26-.59.59-.59.59.26.59.59Z"/>
        <path class="cls-7" d="m175.68,110.2c0,.33-.26.59-.59.59s-.59-.26-.59-.59.26-.59.59-.59.59.26.59.59Z"/>
        <path class="cls-7" d="m143.76,169.03c0,.33-.26.59-.59.59s-.59-.26-.59-.59.26-.59.59-.59.59.26.59.59Z"/>
        <path class="cls-7" d="m192.13,25.04c0,.33-.26.59-.59.59s-.59-.26-.59-.59.26-.59.59-.59.59.26.59.59Z"/>
        <path class="cls-7" d="m272.58,65.11c0,.33-.26.59-.59.59s-.59-.26-.59-.59.26-.59.59-.59.59.26.59.59Z"/>
        <path class="cls-7" d="m341.91,70.99c0,.33-.26.59-.59.59s-.59-.26-.59-.59.26-.59.59-.59.59.26.59.59Z"/>
        <path class="cls-7" d="m405.72,44.83c0,.33-.26.59-.59.59s-.59-.26-.59-.59.26-.59.59-.59.59.26.59.59Z"/>
        <path class="cls-7" d="m295.62.59c0,.33-.26.59-.59.59s-.59-.26-.59-.59.26-.59.59-.59.59.26.59.59Z"/>
        <path class="cls-7" d="m134.9,1.18c0,.33-.26.59-.59.59s-.59-.26-.59-.59.26-.59.59-.59.59.26.59.59Z"/>
        <path class="cls-7" d="m43.72,14.81c0,.33-.26.59-.59.59s-.59-.26-.59-.59.26-.59.59-.59.59.26.59.59Z"/>
        <path class="cls-7" d="m405.13,144.47c0,.33-.26.59-.59.59s-.59-.26-.59-.59.26-.59.59-.59.59.26.59.59Z"/>
        <path class="cls-7" d="m419.79,192.78c0,.33-.26.59-.59.59s-.59-.26-.59-.59.26-.59.59-.59.59.26.59.59Z"/>
        <path class="cls-7" d="m252.31,126.8c0,.33-.26.59-.59.59s-.59-.26-.59-.59.26-.59.59-.59.59.26.59.59Z"/>
        <path class="cls-7" d="m242.57,184.9c0,.33-.26.59-.59.59s-.59-.26-.59-.59.26-.59.59-.59.59.26.59.59Z"/>
        <rect class="cls-7" x="360.05" y="85.68" width="38.71" height=".5"/>
        <rect class="cls-7" x="399.85" y="172.92" width="19.94" height=".5"/>
        <rect class="cls-7" x="118.4" y="159.95" width="38.71" height=".5"/>
        <rect class="cls-7" x="25.05" y="98.42" width="28.57" height=".5"/>
        <rect class="cls-7" x="239.34" y="18.96" width="21.61" height=".5"/>
        <rect class="cls-7" x="108.37" y="73.07" width="38.71" height=".5"/>
      </g>
    </g>
  </g>
</svg>